DBRep_DrawableShape

CASCADE Topology V1, (c) Matra-Datavision
Locations 24
1
              1               0               0               0 
              0               1               0               0 
              0               0               1               0 
1
              1              -0               0              -0 
              0               1               0               0 
             -0               0               1              -0 
2  1 1 2 1 0
2  2 -1 1 -1 0
1
              1               0               0               0 
              0               1               0               0 
              0               0               1               0 
1
              0               1               0               0 
              1              -0               0              -0 
              0               0              -1              -0 
2  5 1 6 1 0
1
              1               0               0               0 
              0               1               0               0 
              0               0               1               0 
1
             -0               0               1              -0 
              1              -0               0              -0 
              0               1               0               0 
2  8 1 9 1 0
1
              1               0               0               0 
              0               1               0               0 
              0               0               1               0 
1
              1              -0               0              -0 
              0               1               0               0 
             -0               0               1              -0 
2  11 1 12 1 0
2  1 1 2 1 12 -1 11 -1 0
2  12 -1 11 -1 0
1
              1               0               0               0 
              0               1               0               0 
              0               0               1               0 
1
              1              -0               0              -0 
              0               1               0               0 
             -0               0               1              -0 
2  16 1 17 1 0
2  11 1 12 1 17 -1 16 -1 0
2  1 1 2 1 17 -1 16 -1 0
2  17 -1 16 -1 0
1
              1               0               0               0 
              0               1               0               0 
              0               0               1               0 
1
              1              -0               0              -0 
              0               1               0               0 
             -0               0               1              -0 
2  22 1 23 1 0
Curve2ds 67
1 0 0 1 0 
1 0 0 1 0 
1 0 0 0 1 
1 7 0 0 -1 
1 0 0 1 0 
1 0 -25 1 0 
8 5.75 30.75
1 3.5 5.75 0 -1 
8 5.75 30.75
1 5.75 13.5 1 0 
8 -18.25 -6.75
1 3.5 -6.75 0 -1 
8 -18.25 -6.75
1 11.5 6.75 0 -1 
8 -8.75 -1.75
1 -1.75 11.5 -1 0 
8 -8.75 -1.75
1 13.5 1.75 0 -1 
1 0 0 1 0 
1 7 0 0 1 
1 0 25 1 0 
1 7 0 0 1 
8 6.75 31.75
1 11.5 -6.75 0 1 
8 6.75 31.75
1 6.75 10.5 1 0 
1 0 7 1 0 
2 0 0 1 0 -0 1 8.5
2 11.5 11.5 1 0 -0 1 8.5
8 -18.25 -6.75
1 3.5 -6.75 0 -1 
8 -18.25 -6.75
1 36.5 6.75 0 -1 
8 -8.75 -1.75
1 -1.75 11.5 -1 0 
8 -8.75 -1.75
1 38.5 1.75 0 -1 
8 12.5 15.5
1 1 7 1 0 
8 12.5 15.5
1 -1 25 1 0 
1 0 3.5 1 0 
2 23 25 0 1 1 -0 8.5
8 32.5 37.5
1 1 7 1 0 
8 32.5 37.5
1 -1 25 1 0 
8 -5.999999999062311e-07 7.0000005999999999
1 4.7123889803846897 0 0 1 
8 -5.999999999062311e-07 7.0000005999999999
1 16.5 3.5 0 1 
8 -5.999999999062311e-07 7.0000005999999999
1 1.5707963267948966 0 0 1 
8 -5.999999999062311e-07 7.0000005999999999
1 33.5 3.5 0 1 
1 0 7 1 0 
2 0 0 1 0 -0 1 7.5
2 0 0 1 0 -0 1 7.5
2 11.5 11.5 1 0 -0 1 7.5
8 -5.999999999062311e-07 7.0000005999999999
1 4.7123889803846897 0 0 1 
8 -5.999999999062311e-07 7.0000005999999999
1 17.5 3.5 0 1 
1 0 3.5 1 0 
2 23 25 0 1 1 -0 7.5
8 -5.999999999062311e-07 7.0000005999999999
1 1.5707963267948966 0 0 1 
8 -5.999999999062311e-07 7.0000005999999999
1 32.5 3.5 0 1 
8 5 20
1 0 -12.5 0 1 
8 5 20
1 12.5 10.5 1 0 
2 0 0 1 0 -0 1 6
1 0 10.5 1 0 
2 0 0 1 0 -0 1 6
2 11.5 11.5 1 0 -0 1 6
8 3.4999994000000001 10.5000006
1 4.7123889803846897 0 0 1 
8 3.4999994000000001 10.5000006
1 19 0 0 1 
8 16.5 18
1 1 7 1 0 
8 16.5 18
1 -1 25 1 0 
1 0 7 1 0 
2 23 25 0 1 1 -0 6
8 30 31.5
1 1 7 1 0 
8 30 31.5
1 -1 25 1 0 
8 3.4999994000000001 10.5000006
1 1.5707963267948966 0 0 1 
8 3.4999994000000001 10.5000006
1 31 0 0 1 
8 4 21
1 0 -12.5 0 1 
8 4 21
1 12.5 10.5 1 0 
8 15.5 16.5
1 1 7 1 0 
8 15.5 16.5
1 -1 25 1 0 
8 31.5 32.5
1 1 7 1 0 
8 31.5 32.5
1 -1 25 1 0 
Curves 31
1 -11.5 -11.5 -3.5 0 0 1 
1 -11.5 -11.5 3.5 0 1 0 
1 -11.5 13.5 -3.5 0 0 1 
1 -11.5 -17.25 0 -0 1 0 
1 -18.25 -11.5 0 -1 0 0 
1 0 -11.5 -5.25 0 0 -1 
1 -11.5 -11.5 3.5 1 0 0 
1 -11.5 13.5 3.5 1 0 0 
1 0 -18.25 3.5 0 1 0 
2 0 0 3.5 0 0 1 1 0 -0 -0 1 0 8.5
1 -18.25 13.5 0 -1 0 0 
1 0 13.5 -5.25 0 0 -1 
1 0 -24 0 -0 1 0 
2 0 0 0 0 0 1 1 0 -0 -0 1 0 8.5
1 0 -24 0 -0 1 0 
1 0 -8.5 -3.5 0 0 1 
1 0 8.5 -3.5 0 0 1 
2 0 0 3.5 0 0 1 1 0 -0 -0 1 0 7.5
1 0 -7.5 -3.5 0 0 1 
2 0 0 0 0 0 1 1 0 -0 -0 1 0 7.5
1 0 7.5 -3.5 0 0 1 
1 0 -12.5 3.5 0 1 0 
2 0 0 3.5 0 0 1 1 0 -0 -0 1 0 6
1 0 -6 -7 0 0 1 
1 0 -24 0 -0 1 0 
2 0 0 0 0 0 1 1 0 -0 -0 1 0 6
1 0 -24 0 -0 1 0 
1 0 6 -7 0 0 1 
1 0 -12.5 3.5 0 1 0 
1 0 -24 0 -0 1 0 
1 0 -24 0 -0 1 0 
Polygon3D 0
PolygonOnTriangulations 28
2 1 2 
p 0.70000004 1 3.5 7 
2 2 3 
p 0.70000004 1 3.5 7 
2 2 4 
p 1.250000015 1 0 25 
2 3 1 
p 1.250000015 1 0 25 
2 3 4 
p 0.70000004 1 3.5 7 
2 2 3 
p 0.70000004 1 3.5 7 
2 1 3 
p 1.250000015 1 5.75 30.75 
2 2 3 
p 1.250000015 1 5.75 30.75 
2 1 2 
p 1.250000015 1 -18.25 -6.75 
2 1 2 
p 1.250000015 1 -18.25 -6.75 
2 4 1 
p 0.70000006 1 -8.75 -5.25 
2 1 3 
p 0.70000006 1 -8.75 -5.25 
2 3 4 
p 1.250000015 1 0 11.5 
2 3 4 
p 1.250000015 1 0 11.5 
2 1 2 
p 1.250000015 1 0 11.5 
2 3 4 
p 1.250000015 1 0 11.5 
2 1 2 
p 1.250000015 1 -18.25 -6.75 
2 4 3 
p 1.250000015 1 -18.25 -6.75 
2 4 1 
p 0.70000006 1 -8.75 -5.25 
2 2 4 
p 0.70000006 1 -8.75 -5.25 
64 1 2 3 4 5 6 7 8 9 10 11 12 13 14 15 16 17 18 19 20 21 22 23 24 25 26 27 28 29 30 31 32 33 34 35 36 37 38 39 40 41 42 43 44 45 46 47 48 49 50 51 52 53 54 55 56 57 58 59 60 61 62 63 64 
p 0.750000015 1 1.5707963267949 1.62066287685188 1.67052942690886 1.72039597696584 1.77026252702282 1.8201290770798 1.86999562713678 1.91986217719376 1.96972872725074 2.01959527730772 2.06946182736471 2.11932837742169 2.16919492747867 2.21906147753565 2.26892802759263 2.31879457764961 2.36866112770659 2.41852767776357 2.46839422782055 2.51826077787753 2.56812732793452 2.6179938779915 2.66786042804848 2.71772697810546 2.76759352816244 2.81746007821942 2.8673266282764 2.91719317833338 2.96705972839036 3.01692627844734 3.06679282850433 3.11665937856131 3.16652592861829 3.21639247867527 3.26625902873225 3.31612557878923 3.36599212884621 3.41585867890319 3.46572522896017 3.51559177901716 3.56545832907414 3.61532487913112 3.6651914291881 3.71505797924508 3.76492452930206 3.81479107935904 3.86465762941602 3.914524179473 3.96439072952998 4.01425727958697 4.06412382964395 4.11399037970093 4.16385692975791 4.21372347981489 4.26359002987187 4.31345657992885 4.36332312998583 4.41318968004281 4.4630562300998 4.51292278015678 4.56278933021376 4.61265588027074 4.66252243032772 4.71238898038469 
64 1 67 68 69 70 71 72 73 74 75 76 77 78 79 80 81 82 83 84 85 86 87 88 89 90 91 92 93 94 95 96 97 98 99 100 101 102 103 104 105 106 107 108 109 110 111 112 113 114 115 116 117 118 119 120 121 122 123 124 125 126 127 128 66 
p 0.750000015 1 1.5707963267949 1.62066287685188 1.67052942690886 1.72039597696584 1.77026252702282 1.8201290770798 1.86999562713678 1.91986217719376 1.96972872725074 2.01959527730772 2.06946182736471 2.11932837742169 2.16919492747867 2.21906147753565 2.26892802759263 2.31879457764961 2.36866112770659 2.41852767776357 2.46839422782055 2.51826077787753 2.56812732793452 2.6179938779915 2.66786042804848 2.71772697810546 2.76759352816244 2.81746007821942 2.8673266282764 2.91719317833338 2.96705972839036 3.01692627844734 3.06679282850433 3.11665937856131 3.16652592861829 3.21639247867527 3.26625902873225 3.31612557878923 3.36599212884621 3.41585867890319 3.46572522896017 3.51559177901716 3.56545832907414 3.61532487913112 3.6651914291881 3.71505797924508 3.76492452930206 3.81479107935904 3.86465762941602 3.914524179473 3.96439072952998 4.01425727958697 4.06412382964395 4.11399037970093 4.16385692975791 4.21372347981489 4.26359002987187 4.31345657992885 4.36332312998583 4.41318968004281 4.4630562300998 4.51292278015678 4.56278933021376 4.61265588027074 4.66252243032772 4.71238898038469 
2 128 64 
p 0.70000004 1 7 10.5 
2 3 4 
p 0.70000004 1 7 10.5 
64 65 66 67 68 69 70 71 72 73 74 75 76 77 78 79 80 81 82 83 84 85 86 87 88 89 90 91 92 93 94 95 96 97 98 99 100 101 102 103 104 105 106 107 108 109 110 111 112 113 114 115 116 117 118 119 120 121 122 123 124 125 126 127 128 
p 0.750000015 1 1.5707963267949 1.62066287685188 1.67052942690886 1.72039597696584 1.77026252702282 1.8201290770798 1.86999562713678 1.91986217719376 1.96972872725074 2.01959527730772 2.06946182736471 2.11932837742169 2.16919492747867 2.21906147753565 2.26892802759263 2.31879457764961 2.36866112770659 2.41852767776357 2.46839422782055 2.51826077787753 2.56812732793452 2.6179938779915 2.66786042804848 2.71772697810546 2.76759352816244 2.81746007821942 2.8673266282764 2.91719317833338 2.96705972839036 3.01692627844734 3.06679282850433 3.11665937856131 3.16652592861829 3.21639247867527 3.26625902873225 3.31612557878923 3.36599212884621 3.41585867890319 3.46572522896017 3.51559177901716 3.56545832907414 3.61532487913112 3.6651914291881 3.71505797924508 3.76492452930206 3.81479107935904 3.86465762941602 3.914524179473 3.96439072952998 4.01425727958697 4.06412382964395 4.11399037970093 4.16385692975791 4.21372347981489 4.26359002987187 4.31345657992885 4.36332312998583 4.41318968004281 4.4630562300998 4.51292278015678 4.56278933021376 4.61265588027074 4.66252243032772 4.71238898038469 
64 65 66 67 68 69 70 71 72 73 74 75 76 77 78 79 80 81 82 83 84 85 86 87 88 89 90 91 92 93 94 95 96 97 98 99 100 101 102 103 104 105 106 107 108 109 110 111 112 113 114 115 116 117 118 119 120 121 122 123 124 125 126 127 128 
p 0.750000015 1 1.5707963267949 1.62066287685188 1.67052942690886 1.72039597696584 1.77026252702282 1.8201290770798 1.86999562713678 1.91986217719376 1.96972872725074 2.01959527730772 2.06946182736471 2.11932837742169 2.16919492747867 2.21906147753565 2.26892802759263 2.31879457764961 2.36866112770659 2.41852767776357 2.46839422782055 2.51826077787753 2.56812732793452 2.6179938779915 2.66786042804848 2.71772697810546 2.76759352816244 2.81746007821942 2.8673266282764 2.91719317833338 2.96705972839036 3.01692627844734 3.06679282850433 3.11665937856131 3.16652592861829 3.21639247867527 3.26625902873225 3.31612557878923 3.36599212884621 3.41585867890319 3.46572522896017 3.51559177901716 3.56545832907414 3.61532487913112 3.6651914291881 3.71505797924508 3.76492452930206 3.81479107935904 3.86465762941602 3.914524179473 3.96439072952998 4.01425727958697 4.06412382964395 4.11399037970093 4.16385692975791 4.21372347981489 4.26359002987187 4.31345657992885 4.36332312998583 4.41318968004281 4.4630562300998 4.51292278015678 4.56278933021376 4.61265588027074 4.66252243032772 4.71238898038469 
2 65 1 
p 0.70000004 1 7 10.5 
2 1 2 
p 0.70000004 1 7 10.5 
Surfaces 11
1 -11.5 -11.5 -3.5 1 0 0 0 0 1 0 -1 0 
1 -11.5 -11.5 -3.5 0 1 0 0 0 1 1 0 0 
1 -11.5 -11.5 3.5 0 0 1 1 0 0 0 1 0 
1 -11.5 13.5 -3.5 0 1 0 0 0 1 1 0 0 
1 -23 -25 0 0 0 1 1 0 -0 -0 1 0 
1 -25 -7 0 0 0 1 1 0 -0 -0 1 0 
2 0 0 -3.5 0 0 1 1 0 -0 -0 1 0 8.5
1 0 0 3.5 0 0 1 1 0 -0 -0 1 0 
2 0 0 -3.5 0 0 1 1 0 -0 -0 1 0 7.5
1 0 0 3.5 0 0 1 1 0 -0 -0 1 0 
2 0 0 -7 0 0 1 1 0 -0 -0 1 0 6
Triangulations 12
4 2 1 1.250000015
-11.5 -11.5 0 -11.5 -11.5 3.5 -11.5 13.5 0 -11.5 13.5 3.5 3.5 0 7 0 3.5 -25 7 -25 2 1 3 2 3 4 
4 2 1 0.9750000325
0 -11.5 0 -11.5 -11.5 0 -11.5 -11.5 3.5 0 -11.5 3.5 3.5 11.5 3.5 0 7 0 7 11.5 4 1 2 4 2 3 
68 66 1 1.250000015
-11.5 13.5 3.5 0 13.5 3.5 -11.5 -11.5 3.5 0 -11.5 3.5 -1.56142466891288e-15 -8.5 3.5 5.20474889637625e-16 8.5 3.5 -0.423690028115925 8.48943383036084 3.5 -0.846326696064441 8.45776159060591 3.5 -1.26685926249748 8.40506202291359 3.5 -1.68424221719488 8.33146614671262 3.5 -2.09743788036749 8.23715693294716 3.5 -2.50541898249268 8.1223688491822 3.5 -2.90717121826818 7.98738727668022 3.5 -3.3016957683349 7.83254780089847 3.5 -3.68801178249924 7.65823537717056 3.5 -4.06515881828121 7.46488337364694 3.5 -4.43219922872574 7.25297249387332 3.5 -4.78822049354079 7.02302958168595 3.5 -5.13233748776656 6.77562631139484 3.5 -5.46369468233559 6.51137776651131 3.5 -5.78146827105282 6.23094091055352 3.5 -6.08486821870761 5.93501295373161 3.5 -6.37314022522575 5.6243296195733 3.5 -6.64556760097826 5.29966331579922 3.5 -6.90147304858479 4.9618212139957 3.5 -7.14022034678157 4.61164324285894 3.5 -7.36121593216774 4.24999999999998 3.5 -7.56391037489749 3.87779058750187 3.5 -7.74779974464923 3.49594037661018 3.5 -7.91242686347575 3.10539870711434 3.5 -8.05738244242063 2.70713652713929 3.5 -8.18230609907511 2.30214397921552 3.5 -8.28688725354551 1.89142793862864 3.5 -8.37086590060377 1.47600951016888 3.5 -8.43403325610147 1.05692148950359 3.5 -8.47623227604003 0.635205795484572 3.5 -8.49735804700694 0.211910879773584 3.5 -8.49735804700694 -0.211910879773657 3.5 -8.47623227604003 -0.635205795484645 3.5 -8.43403325610146 -1.05692148950366 3.5 -8.37086590060376 -1.47600951016895 3.5 -8.28688725354549 -1.89142793862872 3.5 -8.18230609907509 -2.30214397921559 3.5 -8.0573824424206 -2.70713652713936 3.5 -7.91242686347572 -3.1053987071144 3.5 -7.7477997446492 -3.49594037661024 3.5 -7.56391037489746 -3.87779058750193 3.5 -7.3612159321677 -4.25000000000005 3.5 -7.14022034678153 -4.611643242859 3.5 -6.90147304858475 -4.96182121399576 3.5 -6.64556760097822 -5.29966331579928 3.5 -6.3731402252257 -5.62432961957335 3.5 -6.08486821870756 -5.93501295373166 3.5 -5.78146827105277 -6.23094091055357 3.5 -5.46369468233553 -6.51137776651136 3.5 -5.1323374877665 -6.77562631139488 3.5 -4.78822049354073 -7.023029581686 3.5 -4.43219922872567 -7.25297249387336 3.5 -4.06515881828114 -7.46488337364698 3.5 -3.68801178249918 -7.65823537717059 3.5 -3.30169576833484 -7.83254780089849 3.5 -2.90717121826811 -7.98738727668025 3.5 -2.50541898249261 -8.12236884918222 3.5 -2.09743788036742 -8.23715693294718 3.5 -1.6842422171948 -8.33146614671264 3.5 -1.2668592624974 -8.4050620229136 3.5 -0.846326696064356 -8.45776159060592 3.5 -0.423690028115839 -8.48943383036084 3.5 0 25 11.5 25 0 0 11.5 0 11.5 3 11.5 20 11.0763099718841 19.9894338303608 10.6536733039356 19.9577615906059 10.2331407375025 19.9050620229136 9.81575778280512 19.8314661467126 9.40256211963251 19.7371569329472 8.99458101750732 19.6223688491822 8.59282878173182 19.4873872766802 8.1983042316651 19.3325478008985 7.81198821750076 19.1582353771706 7.43484118171879 18.9648833736469 7.06780077127426 18.7529724938733 6.71177950645921 18.523029581686 6.36766251223344 18.2756263113948 6.03630531766441 18.0113777665113 5.71853172894718 17.7309409105535 5.41513178129239 17.4350129537316 5.12685977477425 17.1243296195733 4.85443239902174 16.7996633157992 4.59852695141521 16.4618212139957 4.35977965321843 16.1116432428589 4.13878406783226 15.75 3.93608962510251 15.3777905875019 3.75220025535077 14.9959403766102 3.58757313652425 14.6053987071143 3.44261755757937 14.2071365271393 3.31769390092489 13.8021439792155 3.21311274645449 13.3914279386286 3.12913409939623 12.9760095101689 3.06596674389853 12.5569214895036 3.02376772395997 12.1352057954846 3.00264195299306 11.7119108797736 3.00264195299306 11.2880891202263 3.02376772395997 10.8647942045154 3.06596674389854 10.4430785104963 3.12913409939624 10.023990489831 3.21311274645451 9.60857206137128 3.31769390092491 9.19785602078441 3.4426175575794 8.79286347286064 3.58757313652428 8.3946012928856 3.7522002553508 8.00405962338976 3.93608962510254 7.62220941249807 4.1387840678323 7.24999999999995 4.35977965321847 6.888356757141 4.59852695141525 6.53817878600424 4.85443239902178 6.20033668420072 5.1268597747743 5.87567038042665 5.41513178129244 5.56498704626834 5.71853172894723 5.26905908944643 6.03630531766447 4.98862223348864 6.3676625122335 4.72437368860512 6.71177950645927 4.476970418314 7.06780077127433 4.24702750612664 7.43484118171886 4.03511662635302 7.81198821750082 3.84176462282941 8.19830423166517 3.66745219910151 8.59282878173189 3.51261272331975 8.99458101750739 3.37763115081778 9.40256211963258 3.26284306705282 9.8157577828052 3.16853385328736 10.2331407375026 3.0949379770864 10.6536733039356 3.04223840939408 11.0763099718842 3.01056616963916 54 53 3 52 3 53 55 54 3 51 3 52 56 55 3 50 3 51 57 56 3 49 3 50 58 57 3 48 3 49 59 58 3 47 3 48 60 59 3 46 3 47 61 3 4 61 60 3 45 3 46 62 61 4 44 3 45 63 62 4 43 3 44 64 63 4 42 3 43 65 64 4 41 3 42 66 65 4 40 3 41 67 66 4 39 3 40 68 67 4 38 3 39 5 68 4 37 3 38 1 20 19 1 21 20 1 22 21 1 23 22 1 24 23 1 25 24 1 26 25 1 27 26 1 28 27 1 29 28 1 30 29 1 31 30 1 32 31 1 33 32 1 34 33 1 35 34 1 36 35 1 37 36 18 1 19 17 1 18 16 1 17 15 1 16 14 1 15 2 7 6 2 8 7 2 9 8 2 10 9 2 11 10 2 12 11 2 13 12 2 14 13 2 1 14 1 3 37 
4 2 1 0.9750000325
0 13.5 0 -11.5 13.5 0 -11.5 13.5 3.5 0 13.5 3.5 3.5 11.5 3.5 0 7 0 7 11.5 4 1 2 4 2 3 
68 66 1 1.250000015
0 -11.5 0 -11.5 -11.5 0 -11.5 13.5 0 0 13.5 0 0 8.5 0 -0.423690028115925 8.48943383036084 0 -0.846326696064441 8.45776159060591 0 -1.26685926249748 8.40506202291359 0 -1.68424221719488 8.33146614671262 0 -2.09743788036749 8.23715693294716 0 -2.50541898249268 8.1223688491822 0 -2.90717121826818 7.98738727668022 0 -3.3016957683349 7.83254780089847 0 -3.68801178249924 7.65823537717056 0 -4.06515881828121 7.46488337364694 0 -4.43219922872574 7.25297249387332 0 -4.78822049354079 7.02302958168595 0 -5.13233748776656 6.77562631139484 0 -5.46369468233559 6.51137776651131 0 -5.78146827105282 6.23094091055352 0 -6.08486821870761 5.93501295373161 0 -6.37314022522575 5.6243296195733 0 -6.64556760097826 5.29966331579922 0 -6.90147304858479 4.9618212139957 0 -7.14022034678157 4.61164324285894 0 -7.36121593216774 4.24999999999998 0 -7.56391037489749 3.87779058750187 0 -7.74779974464923 3.49594037661018 0 -7.91242686347575 3.10539870711434 0 -8.05738244242063 2.70713652713929 0 -8.18230609907511 2.30214397921552 0 -8.28688725354551 1.89142793862864 0 -8.37086590060377 1.47600951016888 0 -8.43403325610147 1.05692148950359 0 -8.47623227604003 0.635205795484572 0 -8.49735804700694 0.211910879773584 0 -8.49735804700694 -0.211910879773657 0 -8.47623227604003 -0.635205795484645 0 -8.43403325610146 -1.05692148950366 0 -8.37086590060376 -1.47600951016895 0 -8.28688725354549 -1.89142793862872 0 -8.18230609907509 -2.30214397921559 0 -8.0573824424206 -2.70713652713936 0 -7.91242686347572 -3.1053987071144 0 -7.7477997446492 -3.49594037661024 0 -7.56391037489746 -3.87779058750193 0 -7.3612159321677 -4.25000000000005 0 -7.14022034678153 -4.611643242859 0 -6.90147304858475 -4.96182121399576 0 -6.64556760097822 -5.29966331579928 0 -6.3731402252257 -5.62432961957335 0 -6.08486821870756 -5.93501295373166 0 -5.78146827105277 -6.23094091055357 0 -5.46369468233553 -6.51137776651136 0 -5.1323374877665 -6.77562631139488 0 -4.78822049354073 -7.023029581686 0 -4.43219922872567 -7.25297249387336 0 -4.06515881828114 -7.46488337364698 0 -3.68801178249918 -7.65823537717059 0 -3.30169576833484 -7.83254780089849 0 -2.90717121826811 -7.98738727668025 0 -2.50541898249261 -8.12236884918222 0 -2.09743788036742 -8.23715693294718 0 -1.6842422171948 -8.33146614671264 0 -1.2668592624974 -8.4050620229136 0 -0.846326696064356 -8.45776159060592 0 -0.423690028115839 -8.48943383036084 0 0 -8.5 0 11.5 25 11.5 13.5 36.5 13.5 36.5 25 31.5 25 31.4894338303608 24.5763099718841 31.4577615906059 24.1536733039356 31.4050620229136 23.7331407375025 31.3314661467126 23.3157577828051 31.2371569329472 22.9025621196325 31.1223688491822 22.4945810175073 30.9873872766802 22.0928287817318 30.8325478008985 21.6983042316651 30.6582353771706 21.3119882175008 30.4648833736469 20.9348411817188 30.2529724938733 20.5678007712743 30.023029581686 20.2117795064592 29.7756263113948 19.8676625122334 29.5113777665113 19.5363053176644 29.2309409105535 19.2185317289472 28.9350129537316 18.9151317812924 28.6243296195733 18.6268597747742 28.2996633157992 18.3544323990217 27.9618212139957 18.0985269514152 27.6116432428589 17.8597796532184 27.25 17.6387840678323 26.8777905875019 17.4360896251025 26.4959403766102 17.2522002553508 26.1053987071143 17.0875731365243 25.7071365271393 16.9426175575794 25.3021439792155 16.8176939009249 24.8914279386286 16.7131127464545 24.4760095101689 16.6291340993962 24.0569214895036 16.5659667438985 23.6352057954846 16.52376772396 23.2119108797736 16.5026419529931 22.7880891202263 16.5026419529931 22.3647942045154 16.52376772396 21.9430785104963 16.5659667438985 21.523990489831 16.6291340993962 21.1085720613713 16.7131127464545 20.6978560207844 16.8176939009249 20.2928634728606 16.9426175575794 19.8946012928856 17.0875731365243 19.5040596233898 17.2522002553508 19.1222094124981 17.4360896251025 18.75 17.6387840678323 18.388356757141 17.8597796532185 18.0381787860042 18.0985269514153 17.7003366842007 18.3544323990218 17.3756703804266 18.6268597747743 17.0649870462683 18.9151317812924 16.7690590894464 19.2185317289472 16.4886222334886 19.5363053176645 16.2243736886051 19.8676625122335 15.976970418314 20.2117795064593 15.7470275061266 20.5678007712743 15.535116626353 20.9348411817189 15.3417646228294 21.3119882175008 15.1674521991015 21.6983042316652 15.0126127233198 22.0928287817319 14.8776311508178 22.4945810175074 14.7628430670528 22.9025621196326 14.6685338532874 23.3157577828052 14.5949379770864 23.7331407375026 14.5422384093941 24.1536733039356 14.5105661696392 24.5763099718842 14.5 25 53 2 52 51 52 2 54 2 53 50 51 2 55 2 54 49 50 2 56 2 55 48 49 2 57 2 56 47 48 2 58 2 57 46 47 2 59 2 58 45 46 2 60 1 2 60 2 59 44 45 2 61 1 60 43 44 2 62 1 61 42 43 2 63 1 62 41 42 2 64 1 63 40 41 2 65 1 64 39 40 2 66 1 65 38 39 2 67 1 66 37 38 2 68 1 67 36 37 2 3 18 19 3 19 20 3 20 21 3 21 22 3 22 23 3 23 24 3 24 25 3 25 26 3 26 27 3 27 28 3 28 29 3 29 30 3 36 2 3 30 31 3 31 32 3 32 33 3 33 34 3 34 35 3 35 36 17 18 3 16 17 3 15 16 3 14 15 3 13 14 3 4 5 6 4 6 7 4 7 8 4 8 9 4 9 10 4 10 11 4 11 12 4 12 13 4 13 3 
4 2 1 0.650000055
0 -11.5 3.5 -1.56142466891288e-15 -8.5 3.5 0 -11.5 0 0 -8.5 0 13.5 10.5 16.5 10.5 13.5 7 16.5 7 2 1 3 2 3 4 
4 2 1 0.850000055
5.20474889637625e-16 8.5 3.5 0 13.5 3.5 0 8.5 0 0 13.5 0 33.5 10.5 38.5 10.5 33.5 7 38.5 7 2 1 3 2 3 4 
128 126 1 0.7250000275
3.67394039744206e-16 6 3.5 -0.299075313964182 5.99254152731353 3.5 -0.597407079574899 5.97018465219241 3.5 -0.894253597057046 5.93298495735077 3.5 -1.18887685919638 5.88103492709126 3.5 -1.48054438614176 5.81446371737447 3.5 -1.76853104646542 5.73343683471684 3.5 -2.05212085995401 5.63815572471545 3.5 -2.33060877764817 5.52885727122245 3.5 -2.60330243470535 5.40581320741452 3.5 -2.86952387172791 5.26932944022137 3.5 -3.12861122027699 5.11974528979293 3.5 -3.37992034838173 4.95743264589597 3.5 -3.62282646195287 4.78279504333753 3.5 -3.85672565811924 4.59626665871386 3.5 -4.08103642662552 4.39831123097895 3.5 -4.29520109555832 4.18942090851643 3.5 -4.49868721780641 3.97011502558115 3.5 -4.69098889480818 3.74093881115239 3.5 -4.87162803429515 3.50246203340873 3.5 -5.04015553890464 3.25527758319455 3.5 -5.19615242270664 2.99999999999999 3.5 -5.33923085286882 2.73726394411896 3.5 -5.46903511387005 2.46772261878365 3.5 -5.58524249186523 2.19204614619835 3.5 -5.6875640770028 1.91091990151009 3.5 -5.77574548170008 1.62504280885801 3.5 -5.84956747309095 1.33512560373787 3.5 -5.90884651807325 1.04188906600156 3.5 -5.95343523960103 0.746062227884888 3.5 -5.98322278308708 0.448380561518521 3.5 -5.9981350920049 0.149584150428412 3.5 -5.9981350920049 -0.149584150428464 3.5 -5.98322278308708 -0.448380561518573 3.5 -5.95343523960103 -0.74606222788494 3.5 -5.90884651807324 -1.04188906600161 3.5 -5.84956747309093 -1.33512560373792 3.5 -5.77574548170006 -1.62504280885806 3.5 -5.68756407700278 -1.91091990151014 3.5 -5.58524249186521 -2.1920461461984 3.5 -5.46903511387002 -2.4677226187837 3.5 -5.33923085286879 -2.73726394411901 3.5 -5.19615242270661 -3.00000000000003 3.5 -5.04015553890461 -3.25527758319459 3.5 -4.87162803429512 -3.50246203340877 3.5 -4.69098889480815 -3.74093881115243 3.5 -4.49868721780638 -3.97011502558119 3.5 -4.29520109555828 -4.18942090851647 3.5 -4.08103642662548 -4.39831123097899 3.5 -3.8567256581192 -4.5962666587139 3.5 -3.62282646195283 -4.78279504333756 3.5 -3.37992034838169 -4.957432645896 3.5 -3.12861122027695 -5.11974528979296 3.5 -2.86952387172786 -5.2693294402214 3.5 -2.6033024347053 -5.40581320741454 3.5 -2.33060877764812 -5.52885727122247 3.5 -2.05212085995396 -5.63815572471547 3.5 -1.76853104646537 -5.73343683471686 3.5 -1.48054438614171 -5.81446371737448 3.5 -1.18887685919633 -5.88103492709127 3.5 -0.894253597056988 -5.93298495735078 3.5 -0.59740707957484 -5.97018465219241 3.5 -0.299075313964121 -5.99254152731354 3.5 -1.10218211923262e-15 -6 3.5 0 6 0 -0.299075313964182 5.99254152731353 0 -0.597407079574899 5.97018465219241 0 -0.894253597057046 5.93298495735077 0 -1.18887685919638 5.88103492709126 0 -1.48054438614176 5.81446371737447 0 -1.76853104646542 5.73343683471684 0 -2.05212085995401 5.63815572471545 0 -2.33060877764817 5.52885727122245 0 -2.60330243470535 5.40581320741452 0 -2.86952387172791 5.26932944022137 0 -3.12861122027699 5.11974528979293 0 -3.37992034838173 4.95743264589597 0 -3.62282646195287 4.78279504333753 0 -3.85672565811924 4.59626665871386 0 -4.08103642662552 4.39831123097895 0 -4.29520109555832 4.18942090851643 0 -4.49868721780641 3.97011502558115 0 -4.69098889480818 3.74093881115239 0 -4.87162803429515 3.50246203340873 0 -5.04015553890464 3.25527758319455 0 -5.19615242270664 2.99999999999999 0 -5.33923085286882 2.73726394411896 0 -5.46903511387005 2.46772261878365 0 -5.58524249186523 2.19204614619835 0 -5.6875640770028 1.91091990151009 0 -5.77574548170008 1.62504280885801 0 -5.84956747309095 1.33512560373787 0 -5.90884651807325 1.04188906600156 0 -5.95343523960103 0.746062227884888 0 -5.98322278308708 0.448380561518521 0 -5.9981350920049 0.149584150428412 0 -5.9981350920049 -0.149584150428464 0 -5.98322278308708 -0.448380561518573 0 -5.95343523960103 -0.74606222788494 0 -5.90884651807324 -1.04188906600161 0 -5.84956747309093 -1.33512560373792 0 -5.77574548170006 -1.62504280885806 0 -5.68756407700278 -1.91091990151014 0 -5.58524249186521 -2.1920461461984 0 -5.46903511387002 -2.4677226187837 0 -5.33923085286879 -2.73726394411901 0 -5.19615242270661 -3.00000000000003 0 -5.04015553890461 -3.25527758319459 0 -4.87162803429512 -3.50246203340877 0 -4.69098889480815 -3.74093881115243 0 -4.49868721780638 -3.97011502558119 0 -4.29520109555828 -4.18942090851647 0 -4.08103642662548 -4.39831123097899 0 -3.8567256581192 -4.5962666587139 0 -3.62282646195283 -4.78279504333756 0 -3.37992034838169 -4.957432645896 0 -3.12861122027695 -5.11974528979296 0 -2.86952387172786 -5.2693294402214 0 -2.6033024347053 -5.40581320741454 0 -2.33060877764812 -5.52885727122247 0 -2.05212085995396 -5.63815572471547 0 -1.76853104646537 -5.73343683471686 0 -1.48054438614171 -5.81446371737448 0 -1.18887685919633 -5.88103492709127 0 -0.894253597056988 -5.93298495735078 0 -0.59740707957484 -5.97018465219241 0 -0.299075313964121 -5.99254152731354 0 0 -6 0 1.5707963267949 10.5 1.62066287685188 10.5 1.67052942690886 10.5 1.72039597696584 10.5 1.77026252702282 10.5 1.8201290770798 10.5 1.86999562713678 10.5 1.91986217719376 10.5 1.96972872725074 10.5 2.01959527730772 10.5 2.06946182736471 10.5 2.11932837742169 10.5 2.16919492747867 10.5 2.21906147753565 10.5 2.26892802759263 10.5 2.31879457764961 10.5 2.36866112770659 10.5 2.41852767776357 10.5 2.46839422782055 10.5 2.51826077787753 10.5 2.56812732793452 10.5 2.6179938779915 10.5 2.66786042804848 10.5 2.71772697810546 10.5 2.76759352816244 10.5 2.81746007821942 10.5 2.8673266282764 10.5 2.91719317833338 10.5 2.96705972839036 10.5 3.01692627844734 10.5 3.06679282850433 10.5 3.11665937856131 10.5 3.16652592861829 10.5 3.21639247867527 10.5 3.26625902873225 10.5 3.31612557878923 10.5 3.36599212884621 10.5 3.41585867890319 10.5 3.46572522896017 10.5 3.51559177901716 10.5 3.56545832907414 10.5 3.61532487913112 10.5 3.6651914291881 10.5 3.71505797924508 10.5 3.76492452930206 10.5 3.81479107935904 10.5 3.86465762941602 10.5 3.914524179473 10.5 3.96439072952998 10.5 4.01425727958697 10.5 4.06412382964395 10.5 4.11399037970093 10.5 4.16385692975791 10.5 4.21372347981489 10.5 4.26359002987187 10.5 4.31345657992885 10.5 4.36332312998583 10.5 4.41318968004281 10.5 4.4630562300998 10.5 4.51292278015678 10.5 4.56278933021376 10.5 4.61265588027074 10.5 4.66252243032772 10.5 4.71238898038469 10.5 1.5707963267949 7 1.62066287685188 7 1.67052942690886 7 1.72039597696584 7 1.77026252702282 7 1.8201290770798 7 1.86999562713678 7 1.91986217719376 7 1.96972872725074 7 2.01959527730772 7 2.06946182736471 7 2.11932837742169 7 2.16919492747867 7 2.21906147753565 7 2.26892802759263 7 2.31879457764961 7 2.36866112770659 7 2.41852767776357 7 2.46839422782055 7 2.51826077787753 7 2.56812732793452 7 2.6179938779915 7 2.66786042804848 7 2.71772697810546 7 2.76759352816244 7 2.81746007821942 7 2.8673266282764 7 2.91719317833338 7 2.96705972839036 7 3.01692627844734 7 3.06679282850433 7 3.11665937856131 7 3.16652592861829 7 3.21639247867527 7 3.26625902873225 7 3.31612557878923 7 3.36599212884621 7 3.41585867890319 7 3.46572522896017 7 3.51559177901716 7 3.56545832907414 7 3.61532487913112 7 3.6651914291881 7 3.71505797924508 7 3.76492452930206 7 3.81479107935904 7 3.86465762941602 7 3.914524179473 7 3.96439072952998 7 4.01425727958697 7 4.06412382964395 7 4.11399037970093 7 4.16385692975791 7 4.21372347981489 7 4.26359002987187 7 4.31345657992885 7 4.36332312998583 7 4.41318968004281 7 4.4630562300998 7 4.51292278015678 7 4.56278933021376 7 4.61265588027074 7 4.66252243032772 7 4.71238898038469 7 2 1 65 2 65 66 3 2 66 3 66 67 3 67 68 4 3 68 5 4 68 5 68 69 6 5 69 6 69 70 7 6 70 7 70 71 8 7 71 8 71 72 9 8 72 9 72 73 9 73 74 10 9 74 11 10 74 11 74 75 12 75 76 12 11 75 12 76 77 13 12 77 14 77 78 14 13 77 15 78 79 15 14 78 16 79 80 16 80 81 16 15 79 17 16 81 18 17 81 18 81 82 19 18 82 19 82 83 20 19 83 20 83 84 21 20 84 21 84 85 21 85 86 22 21 86 22 86 87 23 22 87 24 23 87 24 87 88 25 24 88 25 88 89 26 25 89 26 89 90 27 26 90 27 90 91 28 27 91 28 91 92 29 28 92 29 92 93 30 29 93 30 93 94 31 30 94 31 94 95 32 31 95 32 95 96 33 32 96 33 96 97 34 33 97 34 97 98 35 34 98 35 98 99 36 35 99 36 99 100 37 36 100 37 100 101 38 101 102 38 37 101 39 102 103 39 38 102 40 103 104 40 39 103 41 104 105 41 40 104 42 105 106 42 41 105 43 106 107 43 42 106 44 43 107 44 107 108 44 108 109 45 44 109 45 109 110 46 45 110 47 110 111 47 46 110 48 111 112 48 47 111 49 112 113 49 48 112 50 113 114 50 49 113 51 114 115 51 50 114 52 115 116 52 51 115 53 116 117 53 52 116 54 117 118 54 53 117 55 118 119 55 119 120 55 54 118 56 55 120 57 120 121 57 121 122 57 56 120 58 57 122 59 122 123 59 58 122 60 123 124 60 124 125 60 59 123 61 60 125 62 125 126 62 126 127 62 61 125 63 62 127 64 127 128 64 63 127 
128 126 1 0.750000015
3.67394039744206e-16 6 3.5 4.59242549680257e-16 7.5 3.5 -0.373844142455228 7.49067690914192 3.5 -0.746758849468624 7.46273081524051 3.5 -1.11781699632131 7.41623119668846 3.5 -1.48609607399548 7.35129365886408 3.5 -1.8506804826772 7.26807964671808 3.5 -2.21066380808178 7.16679604339606 3.5 -2.56515107494251 7.04769465589431 3.5 -2.91326097206021 6.91107158902806 3.5 -3.25412804338169 6.75726650926814 3.5 -3.58690483965989 6.58666180027671 3.5 -3.91076402534624 6.39968161224117 3.5 -4.22490043547717 6.19679080736996 3.5 -4.52853307744108 5.97849380417192 3.5 -4.82090707264905 5.74533332339233 3.5 -5.1012955332819 5.49788903872369 3.5 -5.3690013694479 5.23677613564554 3.5 -5.62335902225801 4.96264378197644 3.5 -5.86373611851023 4.67617351394049 3.5 -6.08953504286893 4.37807754176091 3.5 -6.30019442363079 4.06909697899318 3.5 -6.4951905283833 3.74999999999999 3.5 -6.67403856608602 3.42157993014871 3.5 -6.83629389233756 3.08465327347957 3.5 -6.98155311483154 2.74005768274794 3.5 -7.1094550962535 2.38864987688761 3.5 -7.2196818521251 2.03130351107251 3.5 -7.31195934136368 1.66890700467233 3.5 -7.38605814759156 1.30236133250195 3.5 -7.44179404950129 0.93257778485611 3.5 -7.47902847885885 0.560475701898152 3.5 -7.49766886500612 0.186980188035515 3.5 -7.49766886500612 -0.18698018803558 3.5 -7.47902847885885 -0.560475701898216 3.5 -7.44179404950129 -0.932577784856175 3.5 -7.38605814759155 -1.30236133250201 3.5 -7.31195934136367 -1.6689070046724 3.5 -7.21968185212508 -2.03130351107258 3.5 -7.10945509625347 -2.38864987688767 3.5 -6.98155311483152 -2.740057682748 3.5 -6.83629389233753 -3.08465327347963 3.5 -6.67403856608599 -3.42157993014876 3.5 -6.49519052838327 -3.75000000000004 3.5 -6.30019442363076 -4.06909697899324 3.5 -6.08953504286889 -4.37807754176097 3.5 -5.86373611851019 -4.67617351394054 3.5 -5.62335902225797 -4.96264378197649 3.5 -5.36900136944785 -5.23677613564559 3.5 -5.10129553328185 -5.49788903872374 3.5 -4.820907072649 -5.74533332339237 3.5 -4.52853307744103 -5.97849380417195 3.5 -4.22490043547711 -6.19679080737 3.5 -3.91076402534618 -6.3996816122412 3.5 -3.58690483965983 -6.58666180027674 3.5 -3.25412804338163 -6.75726650926817 3.5 -2.91326097206015 -6.91107158902808 3.5 -2.56515107494245 -7.04769465589434 3.5 -2.21066380808172 -7.16679604339608 3.5 -1.85068048267713 -7.2680796467181 3.5 -1.48609607399541 -7.35129365886409 3.5 -1.11781699632123 -7.41623119668848 3.5 -0.74675884946855 -7.46273081524052 3.5 -0.373844142455152 -7.49067690914192 3.5 -1.37772764904077e-15 -7.5 3.5 -1.10218211923262e-15 -6 3.5 -0.299075313964182 5.99254152731353 3.5 -0.597407079574899 5.97018465219241 3.5 -0.894253597057046 5.93298495735077 3.5 -1.18887685919638 5.88103492709126 3.5 -1.48054438614176 5.81446371737447 3.5 -1.76853104646542 5.73343683471684 3.5 -2.05212085995401 5.63815572471545 3.5 -2.33060877764817 5.52885727122245 3.5 -2.60330243470535 5.40581320741452 3.5 -2.86952387172791 5.26932944022137 3.5 -3.12861122027699 5.11974528979293 3.5 -3.37992034838173 4.95743264589597 3.5 -3.62282646195287 4.78279504333753 3.5 -3.85672565811924 4.59626665871386 3.5 -4.08103642662552 4.39831123097895 3.5 -4.29520109555832 4.18942090851643 3.5 -4.49868721780641 3.97011502558115 3.5 -4.69098889480818 3.74093881115239 3.5 -4.87162803429515 3.50246203340873 3.5 -5.04015553890464 3.25527758319455 3.5 -5.19615242270664 2.99999999999999 3.5 -5.33923085286882 2.73726394411896 3.5 -5.46903511387005 2.46772261878365 3.5 -5.58524249186523 2.19204614619835 3.5 -5.6875640770028 1.91091990151009 3.5 -5.77574548170008 1.62504280885801 3.5 -5.84956747309095 1.33512560373787 3.5 -5.90884651807325 1.04188906600156 3.5 -5.95343523960103 0.746062227884888 3.5 -5.98322278308708 0.448380561518521 3.5 -5.9981350920049 0.149584150428412 3.5 -5.9981350920049 -0.149584150428464 3.5 -5.98322278308708 -0.448380561518573 3.5 -5.95343523960103 -0.74606222788494 3.5 -5.90884651807324 -1.04188906600161 3.5 -5.84956747309093 -1.33512560373792 3.5 -5.77574548170006 -1.62504280885806 3.5 -5.68756407700278 -1.91091990151014 3.5 -5.58524249186521 -2.1920461461984 3.5 -5.46903511387002 -2.4677226187837 3.5 -5.33923085286879 -2.73726394411901 3.5 -5.19615242270661 -3.00000000000003 3.5 -5.04015553890461 -3.25527758319459 3.5 -4.87162803429512 -3.50246203340877 3.5 -4.69098889480815 -3.74093881115243 3.5 -4.49868721780638 -3.97011502558119 3.5 -4.29520109555828 -4.18942090851647 3.5 -4.08103642662548 -4.39831123097899 3.5 -3.8567256581192 -4.5962666587139 3.5 -3.62282646195283 -4.78279504333756 3.5 -3.37992034838169 -4.957432645896 3.5 -3.12861122027695 -5.11974528979296 3.5 -2.86952387172786 -5.2693294402214 3.5 -2.6033024347053 -5.40581320741454 3.5 -2.33060877764812 -5.52885727122247 3.5 -2.05212085995396 -5.63815572471547 3.5 -1.76853104646537 -5.73343683471686 3.5 -1.48054438614171 -5.81446371737448 3.5 -1.18887685919633 -5.88103492709127 3.5 -0.894253597056988 -5.93298495735078 3.5 -0.59740707957484 -5.97018465219241 3.5 -0.299075313964121 -5.99254152731354 3.5 0 6 8.88178419700125e-16 7.5 -0.373844142455228 7.49067690914192 -0.746758849468624 7.46273081524051 -1.11781699632131 7.41623119668846 -1.48609607399548 7.35129365886408 -1.8506804826772 7.26807964671809 -2.21066380808178 7.16679604339606 -2.56515107494251 7.04769465589431 -2.91326097206021 6.91107158902806 -3.25412804338169 6.75726650926814 -3.58690483965989 6.58666180027671 -3.91076402534624 6.39968161224117 -4.22490043547717 6.19679080736996 -4.52853307744108 5.97849380417192 -4.82090707264905 5.74533332339233 -5.1012955332819 5.49788903872369 -5.3690013694479 5.23677613564554 -5.62335902225801 4.96264378197644 -5.86373611851023 4.67617351394049 -6.08953504286893 4.37807754176091 -6.30019442363079 4.06909697899318 -6.4951905283833 3.74999999999999 -6.67403856608602 3.42157993014871 -6.83629389233756 3.08465327347957 -6.98155311483154 2.74005768274794 -7.1094550962535 2.38864987688761 -7.2196818521251 2.03130351107252 -7.31195934136368 1.66890700467233 -7.38605814759156 1.30236133250195 -7.44179404950129 0.932577784856111 -7.47902847885885 0.560475701898152 -7.49766886500612 0.186980188035515 -7.49766886500612 -0.18698018803558 -7.47902847885885 -0.560475701898216 -7.44179404950129 -0.932577784856175 -7.38605814759155 -1.30236133250201 -7.31195934136367 -1.6689070046724 -7.21968185212508 -2.03130351107258 -7.10945509625347 -2.38864987688767 -6.98155311483152 -2.740057682748 -6.83629389233753 -3.08465327347963 -6.67403856608599 -3.42157993014876 -6.49519052838327 -3.75000000000004 -6.30019442363076 -4.06909697899324 -6.08953504286889 -4.37807754176097 -5.86373611851019 -4.67617351394054 -5.62335902225797 -4.96264378197649 -5.36900136944785 -5.23677613564559 -5.10129553328185 -5.49788903872374 -4.820907072649 -5.74533332339237 -4.52853307744103 -5.97849380417195 -4.22490043547711 -6.19679080737 -3.91076402534618 -6.3996816122412 -3.58690483965983 -6.58666180027674 -3.25412804338163 -6.75726650926817 -2.91326097206015 -6.91107158902808 -2.56515107494245 -7.04769465589434 -2.21066380808172 -7.16679604339608 -1.85068048267713 -7.2680796467181 -1.48609607399541 -7.35129365886409 -1.11781699632123 -7.41623119668848 -0.74675884946855 -7.46273081524052 -0.373844142455152 -7.49067690914192 0 -7.5 -8.88178419700125e-16 -6 -0.299075313964183 5.99254152731353 -0.597407079574899 5.97018465219241 -0.894253597057046 5.93298495735077 -1.18887685919638 5.88103492709126 -1.48054438614176 5.81446371737447 -1.76853104646542 5.73343683471684 -2.05212085995401 5.63815572471545 -2.33060877764817 5.52885727122245 -2.60330243470535 5.40581320741451 -2.86952387172791 5.26932944022137 -3.12861122027699 5.11974528979293 -3.37992034838173 4.95743264589597 -3.62282646195287 4.78279504333753 -3.85672565811924 4.59626665871387 -4.08103642662552 4.39831123097895 -4.29520109555832 4.18942090851643 -4.49868721780641 3.97011502558115 -4.69098889480818 3.74093881115239 -4.87162803429515 3.50246203340873 -5.04015553890464 3.25527758319455 -5.19615242270664 2.99999999999999 -5.33923085286882 2.73726394411896 -5.46903511387005 2.46772261878365 -5.58524249186523 2.19204614619835 -5.6875640770028 1.91091990151009 -5.77574548170008 1.62504280885801 -5.84956747309095 1.33512560373787 -5.90884651807325 1.04188906600156 -5.95343523960103 0.746062227884888 -5.98322278308708 0.448380561518522 -5.9981350920049 0.149584150428412 -5.9981350920049 -0.149584150428463 -5.98322278308708 -0.448380561518573 -5.95343523960103 -0.74606222788494 -5.90884651807324 -1.04188906600161 -5.84956747309093 -1.33512560373792 -5.77574548170006 -1.62504280885806 -5.68756407700278 -1.91091990151014 -5.58524249186521 -2.1920461461984 -5.46903511387002 -2.4677226187837 -5.33923085286879 -2.73726394411901 -5.19615242270661 -3.00000000000003 -5.04015553890461 -3.25527758319459 -4.87162803429512 -3.50246203340877 -4.69098889480815 -3.74093881115243 -4.49868721780638 -3.97011502558119 -4.29520109555828 -4.18942090851647 -4.08103642662548 -4.39831123097899 -3.8567256581192 -4.5962666587139 -3.62282646195283 -4.78279504333756 -3.37992034838169 -4.957432645896 -3.12861122027695 -5.11974528979296 -2.86952387172786 -5.2693294402214 -2.6033024347053 -5.40581320741454 -2.33060877764812 -5.52885727122247 -2.05212085995396 -5.63815572471547 -1.76853104646537 -5.73343683471686 -1.48054438614171 -5.81446371737448 -1.18887685919633 -5.88103492709127 -0.894253597056988 -5.93298495735078 -0.59740707957484 -5.97018465219241 -0.299075313964122 -5.99254152731354 114 49 50 114 113 49 112 48 49 112 49 113 115 50 51 115 114 50 111 46 47 111 47 48 111 48 112 116 51 52 116 115 51 110 46 111 117 52 53 117 116 52 109 45 46 109 46 110 118 53 54 118 117 53 108 45 109 108 44 45 119 118 54 119 54 55 107 44 108 107 43 44 120 119 55 120 55 56 120 56 57 106 43 107 106 41 42 106 42 43 121 120 57 121 57 58 105 41 106 122 121 58 104 40 41 104 41 105 123 122 58 123 58 59 123 59 60 103 40 104 103 39 40 124 123 60 102 39 103 102 38 39 125 124 60 125 60 61 101 37 38 101 38 102 126 61 62 126 62 63 126 125 61 100 37 101 100 36 37 127 126 63 99 36 100 99 35 36 128 127 63 128 63 64 98 35 99 98 33 34 98 34 35 66 128 64 66 64 65 97 33 98 96 31 32 96 32 33 96 33 97 95 31 96 94 30 31 94 31 95 93 29 30 93 30 94 92 28 29 92 29 93 91 27 28 91 28 92 90 26 27 90 27 91 89 25 26 89 26 90 88 24 25 88 25 89 87 23 24 87 24 88 86 22 23 86 23 87 85 22 86 85 21 22 84 21 85 84 20 21 83 20 84 83 19 20 82 19 83 82 18 19 81 18 82 17 18 81 16 17 81 16 81 80 15 16 80 15 80 79 14 15 79 14 79 78 13 14 78 13 77 76 13 78 77 12 13 76 11 12 76 11 75 74 11 76 75 10 11 74 9 10 74 9 74 73 8 9 73 8 73 72 7 8 72 7 71 70 7 72 71 6 7 70 5 70 69 5 6 70 4 69 68 4 5 69 3 68 67 3 4 68 2 67 1 2 3 67 
4 2 1 0.50000005
0 -7.5 0 -1.37772764904077e-15 -7.5 3.5 0 -6 0 -1.10218211923262e-15 -6 3.5 17.5 7 17.5 10.5 19 7 19 10.5 4 2 1 4 1 3 
128 126 1 0.750000015
0 7.5 0 -0.373844142455228 7.49067690914192 0 -0.746758849468624 7.46273081524051 0 -1.11781699632131 7.41623119668846 0 -1.48609607399548 7.35129365886408 0 -1.8506804826772 7.26807964671808 0 -2.21066380808178 7.16679604339606 0 -2.56515107494251 7.04769465589431 0 -2.91326097206021 6.91107158902806 0 -3.25412804338169 6.75726650926814 0 -3.58690483965989 6.58666180027671 0 -3.91076402534624 6.39968161224117 0 -4.22490043547717 6.19679080736996 0 -4.52853307744108 5.97849380417192 0 -4.82090707264905 5.74533332339233 0 -5.1012955332819 5.49788903872369 0 -5.3690013694479 5.23677613564554 0 -5.62335902225801 4.96264378197644 0 -5.86373611851023 4.67617351394049 0 -6.08953504286893 4.37807754176091 0 -6.30019442363079 4.06909697899318 0 -6.4951905283833 3.74999999999999 0 -6.67403856608602 3.42157993014871 0 -6.83629389233756 3.08465327347957 0 -6.98155311483154 2.74005768274794 0 -7.1094550962535 2.38864987688761 0 -7.2196818521251 2.03130351107251 0 -7.31195934136368 1.66890700467233 0 -7.38605814759156 1.30236133250195 0 -7.44179404950129 0.93257778485611 0 -7.47902847885885 0.560475701898152 0 -7.49766886500612 0.186980188035515 0 -7.49766886500612 -0.18698018803558 0 -7.47902847885885 -0.560475701898216 0 -7.44179404950129 -0.932577784856175 0 -7.38605814759155 -1.30236133250201 0 -7.31195934136367 -1.6689070046724 0 -7.21968185212508 -2.03130351107258 0 -7.10945509625347 -2.38864987688767 0 -6.98155311483152 -2.740057682748 0 -6.83629389233753 -3.08465327347963 0 -6.67403856608599 -3.42157993014876 0 -6.49519052838327 -3.75000000000004 0 -6.30019442363076 -4.06909697899324 0 -6.08953504286889 -4.37807754176097 0 -5.86373611851019 -4.67617351394054 0 -5.62335902225797 -4.96264378197649 0 -5.36900136944785 -5.23677613564559 0 -5.10129553328185 -5.49788903872374 0 -4.820907072649 -5.74533332339237 0 -4.52853307744103 -5.97849380417195 0 -4.22490043547711 -6.19679080737 0 -3.91076402534618 -6.3996816122412 0 -3.58690483965983 -6.58666180027674 0 -3.25412804338163 -6.75726650926817 0 -2.91326097206015 -6.91107158902808 0 -2.56515107494245 -7.04769465589434 0 -2.21066380808172 -7.16679604339608 0 -1.85068048267713 -7.2680796467181 0 -1.48609607399541 -7.35129365886409 0 -1.11781699632123 -7.41623119668848 0 -0.74675884946855 -7.46273081524052 0 -0.373844142455152 -7.49067690914192 0 0 -7.5 0 0 6 0 -0.299075313964182 5.99254152731353 0 -0.597407079574899 5.97018465219241 0 -0.894253597057046 5.93298495735077 0 -1.18887685919638 5.88103492709126 0 -1.48054438614176 5.81446371737447 0 -1.76853104646542 5.73343683471684 0 -2.05212085995401 5.63815572471545 0 -2.33060877764817 5.52885727122245 0 -2.60330243470535 5.40581320741452 0 -2.86952387172791 5.26932944022137 0 -3.12861122027699 5.11974528979293 0 -3.37992034838173 4.95743264589597 0 -3.62282646195287 4.78279504333753 0 -3.85672565811924 4.59626665871386 0 -4.08103642662552 4.39831123097895 0 -4.29520109555832 4.18942090851643 0 -4.49868721780641 3.97011502558115 0 -4.69098889480818 3.74093881115239 0 -4.87162803429515 3.50246203340873 0 -5.04015553890464 3.25527758319455 0 -5.19615242270664 2.99999999999999 0 -5.33923085286882 2.73726394411896 0 -5.46903511387005 2.46772261878365 0 -5.58524249186523 2.19204614619835 0 -5.6875640770028 1.91091990151009 0 -5.77574548170008 1.62504280885801 0 -5.84956747309095 1.33512560373787 0 -5.90884651807325 1.04188906600156 0 -5.95343523960103 0.746062227884888 0 -5.98322278308708 0.448380561518521 0 -5.9981350920049 0.149584150428412 0 -5.9981350920049 -0.149584150428464 0 -5.98322278308708 -0.448380561518573 0 -5.95343523960103 -0.74606222788494 0 -5.90884651807324 -1.04188906600161 0 -5.84956747309093 -1.33512560373792 0 -5.77574548170006 -1.62504280885806 0 -5.68756407700278 -1.91091990151014 0 -5.58524249186521 -2.1920461461984 0 -5.46903511387002 -2.4677226187837 0 -5.33923085286879 -2.73726394411901 0 -5.19615242270661 -3.00000000000003 0 -5.04015553890461 -3.25527758319459 0 -4.87162803429512 -3.50246203340877 0 -4.69098889480815 -3.74093881115243 0 -4.49868721780638 -3.97011502558119 0 -4.29520109555828 -4.18942090851647 0 -4.08103642662548 -4.39831123097899 0 -3.8567256581192 -4.5962666587139 0 -3.62282646195283 -4.78279504333756 0 -3.37992034838169 -4.957432645896 0 -3.12861122027695 -5.11974528979296 0 -2.86952387172786 -5.2693294402214 0 -2.6033024347053 -5.40581320741454 0 -2.33060877764812 -5.52885727122247 0 -2.05212085995396 -5.63815572471547 0 -1.76853104646537 -5.73343683471686 0 -1.48054438614171 -5.81446371737448 0 -1.18887685919633 -5.88103492709127 0 -0.894253597056988 -5.93298495735078 0 -0.59740707957484 -5.97018465219241 0 -0.299075313964121 -5.99254152731354 0 0 -6 0 30.5 25 30.4906769091419 24.6261558575448 30.4627308152405 24.2532411505314 30.4162311966885 23.8821830036787 30.3512936588641 23.5139039260045 30.2680796467181 23.1493195173228 30.1667960433961 22.7893361919182 30.0476946558943 22.4348489250575 29.9110715890281 22.0867390279398 29.7572665092681 21.7458719566183 29.5866618002767 21.4130951603401 29.3996816122412 21.0892359746538 29.19679080737 20.7750995645228 28.9784938041719 20.4714669225589 28.7453333233923 20.179092927351 28.4978890387237 19.8987044667181 28.2367761356455 19.6309986305521 27.9626437819764 19.376640977742 27.6761735139405 19.1362638814898 27.3780775417609 18.9104649571311 27.0690969789932 18.6998055763692 26.75 18.5048094716167 26.4215799301487 18.325961433914 26.0846532734796 18.1637061076624 25.7400576827479 18.0184468851685 25.3886498768876 17.8905449037465 25.0313035110725 17.7803181478749 24.6689070046723 17.6880406586363 24.302361332502 17.6139418524084 23.9325777848561 17.5582059504987 23.5604757018982 17.5209715211411 23.1869801880355 17.5023311349939 22.8130198119644 17.5023311349939 22.4395242981018 17.5209715211412 22.0674222151438 17.5582059504987 21.697638667498 17.6139418524084 21.3310929953276 17.6880406586363 20.9686964889274 17.7803181478749 20.6113501231123 17.8905449037465 20.259942317252 18.0184468851685 19.9153467265204 18.1637061076625 19.5784200698512 18.325961433914 19.25 18.5048094716167 18.9309030210068 18.6998055763692 18.621922458239 18.9104649571311 18.3238264860595 19.1362638814898 18.0373562180235 19.376640977742 17.7632238643544 19.6309986305521 17.5021109612763 19.8987044667181 17.2546666766076 20.179092927351 17.021506195828 20.471466922559 16.80320919263 20.7750995645229 16.6003183877588 21.0892359746538 16.4133381997233 21.4130951603402 16.2427334907318 21.7458719566184 16.0889284109719 22.0867390279398 15.9523053441057 22.4348489250575 15.8332039566039 22.7893361919183 15.7319203532819 23.1493195173229 15.6487063411359 23.5139039260046 15.5837688033115 23.8821830036788 15.5372691847595 24.2532411505315 15.5093230908581 24.6261558575448 15.5 25 29 25 28.9925415273135 24.7009246860358 28.9701846521924 24.4025929204251 28.9329849573508 24.105746402943 28.8810349270913 23.8111231408036 28.8144637173745 23.5194556138582 28.7334368347168 23.2314689535346 28.6381557247154 22.947879140046 28.5288572712224 22.6693912223518 28.4058132074145 22.3966975652947 28.2693294402214 22.1304761282721 28.1197452897929 21.871388779723 27.957432645896 21.6200796516183 27.7827950433375 21.3771735380471 27.5962666587139 21.1432743418808 27.398311230979 20.9189635733745 27.1894209085164 20.7047989044417 26.9701150255812 20.5013127821936 26.7409388111524 20.3090111051918 26.5024620334087 20.1283719657049 26.2552775831945 19.9598444610954 26 19.8038475772934 25.737263944119 19.6607691471312 25.4677226187837 19.53096488613 25.1920461461984 19.4147575081348 24.9109199015101 19.3124359229972 24.625042808858 19.2242545182999 24.3351256037379 19.1504325269091 24.0418890660016 19.0911534819267 23.7460622278849 19.046564760399 23.4483805615185 19.0167772169129 23.1495841504284 19.0018649079951 22.8504158495715 19.0018649079951 22.5516194384814 19.0167772169129 22.2539377721151 19.046564760399 21.9581109339984 19.0911534819268 21.6648743962621 19.1504325269091 21.3749571911419 19.2242545182999 21.0890800984899 19.3124359229972 20.8079538538016 19.4147575081348 20.5322773812163 19.53096488613 20.262736055881 19.6607691471312 20 19.8038475772934 19.7447224168054 19.9598444610954 19.4975379665912 20.1283719657049 19.2590611888476 20.3090111051918 19.0298849744188 20.5013127821936 18.8105790914835 20.7047989044417 18.601688769021 20.9189635733745 18.4037333412861 21.1432743418808 18.2172049566624 21.3771735380472 18.042567354104 21.6200796516183 17.880254710207 21.8713887797231 17.7306705597786 22.1304761282721 17.5941867925855 22.3966975652947 17.4711427287775 22.6693912223519 17.3618442752845 22.947879140046 17.2665631652831 23.2314689535346 17.1855362826255 23.5194556138583 17.1189650729087 23.8111231408037 17.0670150426492 24.105746402943 17.0298153478076 24.4025929204252 17.0074584726865 24.7009246860359 17 25 112 48 47 113 49 48 113 48 112 111 47 46 111 112 47 114 50 49 114 49 113 110 46 45 110 111 46 115 51 50 115 50 114 109 45 44 109 110 45 116 52 51 116 53 52 116 51 115 108 44 43 108 109 44 117 53 116 107 108 43 118 53 117 118 54 53 106 42 41 106 43 42 106 107 43 119 54 118 119 55 54 105 106 41 120 55 119 120 56 55 120 57 56 104 105 41 104 41 40 121 57 120 103 104 40 103 39 38 103 40 39 122 57 121 122 58 57 122 59 58 102 103 38 102 38 37 123 59 122 101 102 37 124 59 123 124 60 59 100 36 35 100 37 36 100 101 37 125 61 60 125 60 124 99 100 35 126 61 125 126 62 61 126 63 62 98 35 34 98 99 35 127 63 126 97 33 32 97 34 33 97 98 34 128 63 127 128 64 63 96 97 32 95 32 31 95 96 32 94 31 30 94 95 31 93 30 29 93 94 30 92 29 28 92 93 29 91 27 26 91 28 27 91 92 28 90 91 26 89 26 25 89 90 26 88 25 24 88 89 25 87 23 22 87 24 23 87 88 24 86 87 22 85 22 21 85 86 22 84 85 21 84 21 20 83 84 20 83 20 19 82 83 19 82 19 18 81 82 18 81 18 17 16 81 17 16 80 81 79 80 16 15 79 16 78 79 15 14 78 15 13 78 14 13 77 78 12 77 13 12 76 77 11 76 12 11 75 76 10 75 11 10 74 75 9 74 10 9 73 74 8 73 9 8 72 73 7 72 8 7 71 72 6 71 7 6 69 70 6 70 71 5 69 6 4 68 69 4 69 5 3 67 68 3 68 4 2 65 66 2 66 67 2 67 3 1 65 2 
4 2 1 0.50000005
0 6 0 3.67394039744206e-16 6 3.5 0 7.5 0 4.59242549680257e-16 7.5 3.5 31 7 31 10.5 32.5 7 32.5 10.5 4 2 1 4 1 3 

TShapes 100
Ve
1.5e-07
-11.5 -11.5 0
0 0

0101101
*
Ve
1e-07
-11.5 -11.5 3.5
0 0

0101101
*
Ed
 1e-07 1 1 0
1  1 0 3.5 7
2  1 2 0 3.5 7
2  2 1 0 3.5 7
6  1 1 4
6  2 2 4
0

0101000
+100 4 -99 4 *
Ve
1e-07
-11.5 13.5 3.5
0 0

0101101
*
Ed
 1e-07 1 1 0
1  2 0 0 25
2  3 3 0 0 25
2  4 1 0 0 25
6  3 1 4
6  4 3 4
0

0101000
-97 4 +99 4 *
Ve
1.5e-07
-11.5 13.5 0
0 0

0101101
*
Ed
 1e-07 1 1 0
1  3 0 3.5 7
2  5 4 0 3.5 7
2  6 1 0 3.5 7
6  5 1 4
6  6 4 4
0

0101000
+95 4 -97 4 *
Ed
 1.5e-07 1 1 0
1  4 0 5.75 30.75
2  7 1 3 5.75 30.75
2  8 5 7 5.75 30.75
6  7 1 0
6  8 5 0
0

0101000
+100 0 -95 0 *
Wi

0101100
-98 3 -96 3 +94 3 +93 0 *
Fa
0  1e-07 1 3
2  1
0111000
+92 0 *
Ve
1.5e-07
0 -11.5 0
0 0

0101101
*
Ed
 1.5e-07 1 1 0
1  5 0 -18.25 -6.75
2  9 2 3 -18.25 -6.75
2  10 5 7 -18.25 -6.75
6  9 2 0
6  10 5 0
0

0101000
+90 0 -100 0 *
Ve
1.5e-07
0 -11.5 3.5
0 0

0101101
*
Ed
 1.5e-07 1 1 0
1  6 0 -8.75 -5.25
2  11 2 3 -8.75 -5.25
2  12 6 10 -8.75 -5.25
6  11 2 0
6  12 6 0
0

0101000
+88 0 -90 0 *
Ed
 1e-07 1 1 0
1  7 0 0 11.5
2  13 3 0 0 11.5
2  14 2 0 0 11.5
6  13 2 4
6  14 3 4
0

0101000
+99 4 -88 4 *
Wi

0101100
+89 0 +87 0 +86 3 +98 3 *
Fa
0  1e-07 2 3
2  2
0111000
+85 0 *
Ve
1.5e-07
0 13.5 3.5
0 0

0101101
*
Ed
 1e-07 1 1 0
1  8 0 0 11.5
2  15 3 0 0 11.5
2  16 4 0 0 11.5
6  15 3 4
6  16 4 4
0

0101000
+97 4 -83 4 *
Ve
1.50000000520475e-07
5.20474889637625e-16 8.5 3.5
0 0

0101101
*
Ed
 1.5e-07 1 1 0
1  9 0 26.75 31.75
2  17 3 3 26.75 31.75
2  18 6 10 26.75 31.75
0

0101000
+81 0 -83 0 *
Ve
1.50000001561425e-07
-1.56142466891288e-15 -8.5 3.5
0 0

0101101
*
Ed
 1.00000003774758e-07 1 1 0
1  10 0 1.5707963267949 4.71238898038469
2  19 7 0 1.5707963267949 4.71238898038469
2  20 8 0 1.5707963267949 4.71238898038469
2  21 3 14 1.5707963267949 4.71238898038469
0

0101000
+81 15 -79 15 *
Ed
 1.5e-07 1 1 0
1  9 0 6.75 9.75
2  17 3 3 6.75 9.75
2  18 6 10 6.75 9.75
0

0101000
+88 0 -79 0 *
Wi

0101100
-82 3 +80 0 -78 13 +77 0 +86 3 -96 3 *
Fa
0  1e-07 3 3

0101000
+76 0 *
Ve
1.5e-07
0 13.5 0
0 0

0101101
*
Ed
 1.5e-07 1 1 0
1  11 0 -18.25 -6.75
2  22 4 3 -18.25 -6.75
2  23 5 7 -18.25 -6.75
6  17 4 0
6  18 5 0
0

0101000
+74 0 -95 0 *
Ed
 1.5e-07 1 1 0
1  12 0 -8.75 -5.25
2  24 4 3 -8.75 -5.25
2  25 6 10 -8.75 -5.25
6  19 4 0
6  20 7 0
0

0101000
+83 0 -74 0 *
Wi

0101100
+73 0 +72 0 +82 3 +94 3 *
Fa
0  1e-07 4 3
2  4
0111000
+71 0 *
Ve
1.5e-07
0 -8.5 0
0 0

0101101
*
Ed
 1.5e-07 1 1 0
1  13 0 12.5 15.5
2  26 6 10 12.5 15.5
2  27 5 7 12.5 15.5
0

0101000
+90 0 -69 0 *
Ve
1.5e-07
0 8.5 0
0 0

0101101
*
Ed
 1.00000003774758e-07 1 1 0
1  14 0 1.5707963267949 4.71238898038469
2  28 7 13 1.5707963267949 4.71238898038469
2  29 5 7 1.5707963267949 4.71238898038469
0

0101000
+67 0 -69 0 *
Ed
 1.5e-07 1 1 0
1  15 0 32.5 37.5
2  30 6 10 32.5 37.5
2  31 5 7 32.5 37.5
0

0101000
+67 0 -74 0 *
Wi

0101100
+89 0 -68 0 +66 0 -65 0 -73 0 +93 0 *
Fa
0  1e-07 5 7

0101000
+64 0 *
Ed
 1e-07 1 1 0
1  16 0 3.5 7
2  32 7 13 3.5 7
2  33 6 10 3.5 7
0

0101000
+69 0 -79 0 *
Wi

0101100
-77 0 +62 0 +68 0 +87 0 *
Fa
0  1e-07 6 10

0101000
+61 0 *
Ed
 1e-07 1 1 0
1  17 0 3.5 7
2  34 7 13 3.5 7
2  35 6 10 3.5 7
0

0101000
+67 0 -81 0 *
Wi

0101100
-80 0 -72 0 +65 0 -59 0 *
Fa
0  1e-07 6 10

0101000
+58 0 *
Wi

0101100
-78 13 +62 0 +66 0 -59 0 *
Fa
0  1e-07 7 13

0101000
+56 0 *
Sh

0101100
-91 0 -84 0 +75 0 +70 0 +63 0 +60 0 +57 0 -55 0 *
So

0100000
+54 0 *
Co

0100000
+53 0 *
Ve
1.50000000459243e-07
4.59242549680257e-16 7.5 3.5
0 0

0101101
*
Ve
1.50000001377728e-07
-1.37772764904077e-15 -7.5 3.5
0 0

0101101
*
Ed
 1.00000003330669e-07 1 1 0
1  18 0 1.5707963267949 4.71238898038469
2  36 9 0 1.5707963267949 4.71238898038469
2  37 10 0 1.5707963267949 4.71238898038469
2  38 8 19 1.5707963267949 4.71238898038469
2  39 3 20 1.5707963267949 4.71238898038469
0

0101000
+51 21 -50 21 *
Ve
1.5e-07
0 -7.5 0
0 0

0101101
*
Ed
 1e-07 1 1 0
1  19 0 3.5 7
2  40 9 18 3.5 7
2  41 6 10 3.5 7
0

0101000
+48 0 -50 0 *
Ve
1.5e-07
0 7.5 0
0 0

0101101
*
Ed
 1.00000003330669e-07 1 1 0
1  20 0 1.5707963267949 4.71238898038469
2  42 9 18 1.5707963267949 4.71238898038469
2  43 5 7 1.5707963267949 4.71238898038469
0

0101000
+46 0 -48 0 *
Ed
 1e-07 1 1 0
1  21 0 3.5 7
2  44 9 18 3.5 7
2  45 6 10 3.5 7
0

0101000
+46 0 -51 0 *
Wi

0101100
-49 18 +47 0 +45 0 -44 0 *
Fa
0  1e-07 9 18

0101000
+43 0 *
Ve
1.50000000367394e-07
3.67394039744206e-16 6 3.5
0 0

0101101
*
Ed
 1.5e-07 1 1 0
1  22 0 18.5 20
2  46 10 18 18.5 20
2  47 6 10 18.5 20
0

0101000
+41 0 -51 0 *
Ve
1.50000001102182e-07
-1.10218211923262e-15 -6 3.5
0 0

0101101
*
Ed
 1e-07 1 1 0
1  23 0 1.5707963267949 4.71238898038469
2  48 10 18 1.5707963267949 4.71238898038469
2  49 11 24 1.5707963267949 4.71238898038469
2  50 8 13 1.5707963267949 4.71238898038469
2  51 3 3 1.5707963267949 4.71238898038469
6  21 8 0
6  22 9 0
0

0101000
+41 0 -39 0 *
Ed
 1.5e-07 1 1 0
1  22 0 5 6.5
2  46 10 18 5 6.5
2  47 6 10 5 6.5
0

0101000
+50 0 -39 0 *
Wi

0101100
+40 0 -38 0 +37 0 +49 18 *
Fa
0  1e-07 10 18

0101000
+36 0 *
Ve
1.5e-07
0 -6 0
0 0

0101101
*
Ed
 1e-07 1 1 0
1  24 0 7 10.5
2  52 11 24 7 10.5
2  53 6 10 7 10.5
6  23 8 0
6  24 10 0
0

0101000
+34 0 -39 0 *
Ed
 1.5e-07 1 1 0
1  25 0 16.5 18
2  54 6 10 16.5 18
2  55 5 7 16.5 18
0

0101000
+48 0 -34 0 *
Wi

0101100
-47 0 -37 0 +33 0 +32 0 *
Fa
0  1e-07 6 10

0101000
+31 0 *
Ve
1.5e-07
0 6 0
0 0

0101101
*
Ed
 1e-07 1 1 0
1  26 0 1.5707963267949 4.71238898038469
2  56 11 24 1.5707963267949 4.71238898038469
2  57 5 7 1.5707963267949 4.71238898038469
6  25 8 0
6  26 11 0
0

0101000
+29 0 -34 0 *
Ed
 1.5e-07 1 1 0
1  27 0 30 31.5
2  58 6 10 30 31.5
2  59 5 7 30 31.5
0

0101000
+29 0 -46 0 *
Wi

0101100
-45 0 -32 0 +28 0 -27 0 *
Fa
0  1e-07 5 7

0101000
+26 0 *
Ed
 1e-07 1 1 0
1  28 0 7 10.5
2  60 11 24 7 10.5
2  61 6 10 7 10.5
6  27 8 0
6  28 12 0
0

0101000
+29 0 -41 0 *
Wi

0101100
-24 0 -40 0 +44 0 +27 0 *
Fa
0  1e-07 6 10

0101000
+23 0 *
Wi

0101100
-38 0 +33 0 +28 0 -24 0 *
Fa
0  1e-07 11 24
2  8
0111000
+21 0 *
Sh

0101100
+42 0 +35 0 +30 0 +25 0 +22 0 -20 0 *
So

0100000
+19 0 *
Co

0100000
+18 0 *
Ed
 1.5e-07 1 1 0
1  29 0 20 21
2  62 8 13 20 21
2  63 6 10 20 21
0

0101000
+51 0 -81 0 *
Ed
 1.5e-07 1 1 0
1  29 0 4 5
2  62 8 13 4 5
2  63 6 10 4 5
0

0101000
+79 0 -50 0 *
Wi

0101100
+16 0 -49 18 +15 0 +78 13 *
Fa
0  1e-07 8 13

0101000
+14 0 *
Ed
 1.5e-07 1 1 0
1  30 0 15.5 16.5
2  64 6 10 15.5 16.5
2  65 5 7 15.5 16.5
0

0101000
+69 0 -48 0 *
Wi

0101100
-62 0 -15 0 +47 0 +12 0 *
Fa
0  1e-07 6 10

0101000
+11 0 *
Ed
 1.5e-07 1 1 0
1  31 0 31.5 32.5
2  66 6 10 31.5 32.5
2  67 5 7 31.5 32.5
0

0101000
+46 0 -67 0 *
Wi

0101100
-66 0 -12 0 +45 0 -9 0 *
Fa
0  1e-07 5 7

0101000
+8 0 *
Wi

0101100
-44 0 -16 0 +59 0 +9 0 *
Fa
0  1e-07 6 10

0101000
+6 0 *
Sh

0101100
+55 0 +13 0 +10 0 +7 0 +5 0 -42 0 *
So

0100000
+4 0 *
Co

0100000
+3 0 *
Co

1100000
+52 0 +17 0 +2 0 *

+1 0 